# xmcd CD database file
# Generated: mar jul 5 06:04:39 2005 by KSCD
# 
# Track frame offsets:
#       182
#       15522
#       28240
#       40987
#       57607
#       70000
#       88415
#       101335
#       114340
#       133160
#       148570
#       167747
#       192205
#       209760
#       226530
#       232487
#       257375
#
# Disc length: 3607 seconds
#
# Revision: 5
# Processed by: cddbd v1.5.1PL0 Copyright (c) Steve Scherf et al.
# Submitted via: Kscd 1.3.3
#
DISCID=f30e1511
DTITLE=PacoIsidro - Yo tengo tres corazones
DYEAR=1900
DGENRE=
TTITLE0=
TTITLE1=
TTITLE2=
TTITLE3=Moritos a caballo
TTITLE4=
TTITLE5=
TTITLE6=
TTITLE7=
TTITLE8=
TTITLE9=
TTITLE10=
TTITLE11=
TTITLE12=
TTITLE13=
TTITLE14=
TTITLE15=
TTITLE16=
EXTD=Yo tengo tres corazones
EXTT0=
EXTT1=
EXTT2=
EXTT3=Yo tengo tres corazones
EXTT4=Yo tengo tres corazones
EXTT5=
EXTT6=
EXTT7=
EXTT8=
EXTT9=
EXTT10=
EXTT11=
EXTT12=
EXTT13=
EXTT14=
EXTT15=
EXTT16=
PLAYORDER=
